<?xml version="1.0" encoding="UTF-8" standalone="no"?>
<!-- Created with Inkscape (http://www.inkscape.org/) -->

<svg
   xmlns:dc="http://purl.org/dc/elements/1.1/"
   xmlns:cc="http://creativecommons.org/ns#"
   xmlns:rdf="http://www.w3.org/1999/02/22-rdf-syntax-ns#"
   xmlns:svg="http://www.w3.org/2000/svg"
   xmlns="http://www.w3.org/2000/svg"
   xmlns:sodipodi="http://sodipodi.sourceforge.net/DTD/sodipodi-0.dtd"
   xmlns:inkscape="http://www.inkscape.org/namespaces/inkscape"
   version="1.1"
   id="svg2"
   xml:space="preserve"
   width="285.01706"
   height="454.98334"
   viewBox="0 0 285.01706 454.98334"
   sodipodi:docname="4365856.ai.svg"
   inkscape:version="0.92.5 (2060ec1f9f, 2020-04-08)"><metadata
     id="metadata8"><rdf:RDF><cc:Work
         rdf:about=""><dc:format>image/svg+xml</dc:format><dc:type
           rdf:resource="http://purl.org/dc/dcmitype/StillImage" /><dc:title></dc:title></cc:Work></rdf:RDF></metadata><defs
     id="defs6"><clipPath
       clipPathUnits="userSpaceOnUse"
       id="clipPath20"><path
         d="M 0,500 H 750 V 0 H 0 Z"
         id="path18"
         inkscape:connector-curvature="0" /></clipPath><clipPath
       clipPathUnits="userSpaceOnUse"
       id="clipPath32"><path
         d="m 330.455,357.618 c -7.974,-0.873 -13.042,-4.893 -19.808,-8.441 v 0 c -6.441,-3.376 -14.871,-4.241 -21.787,-7.553 v 0 c -4.917,-2.355 -12.776,-5.414 -16.219,-9.699 v 0 c -3.752,-4.672 -3.442,-12.03 -2.161,-17.511 v 0 c 2.805,-12.007 9.958,-23.426 8.581,-35.679 v 0 c -0.342,-3.045 -1.213,-6.012 -1.579,-9.055 v 0 c -1.596,-13.256 7.101,-24.401 16.342,-32.796 v 0 c 3.054,-2.776 6.674,-5.707 8.103,-9.728 v 0 c 1.645,-4.628 0.495,-10.145 1.454,-15.056 v 0 c 2.272,-11.624 10.238,-21.682 20.269,-27.98 v 0 c 10.03,-6.298 21.961,-9.097 33.793,-9.627 v 0 c 11.174,-0.501 22.682,1.022 32.549,6.285 v 0 c 9.563,5.099 17.088,13.404 26.54,18.704 v 0 c 5.299,2.971 11.107,4.94 16.454,7.821 v 0 c 6.633,3.574 12.448,8.612 17.05,14.57 v 0 c 5.666,7.336 9.484,12.118 18.166,15.599 v 0 c 11.418,4.559 22.046,10.378 29.172,20.479 v 0 c 0.807,1.141 1.645,2.385 1.633,3.782 v 0 c -0.013,1.225 -0.693,2.352 -1.519,3.257 v 0 c -3.723,4.077 -10.944,5.498 -11.814,10.95 v 0 c -0.264,1.651 0.182,3.325 0.625,4.937 v 0 c 1.722,6.281 3.441,12.563 5.163,18.846 v 0 c 1.635,5.966 3.281,12.217 1.974,18.263 v 0 c -1.199,5.55 -4.856,10.379 -9.443,13.724 v 0 c -4.588,3.345 -10.058,5.309 -15.612,6.489 v 0 c -8.263,1.754 -16.748,1.833 -25.156,1.618 v 0 c -7.804,-0.2 -13.816,1.708 -21.024,4.788 v 0 c -8.649,3.696 -18.007,5.74 -27.412,5.947 v 0 c -2.91,0.064 -5.823,-0.044 -8.736,-0.152 v 0 c -4.214,-0.157 -8.426,-0.313 -12.622,0.054 v 0 c -13.155,1.148 -25.814,7.384 -38.851,7.384 v 0 c -1.37,0 -2.746,-0.069 -4.125,-0.22"
         id="path30"
         inkscape:connector-curvature="0" /></clipPath><clipPath
       clipPathUnits="userSpaceOnUse"
       id="clipPath64"><path
         d="M 0,500 H 750 V 0 H 0 Z"
         id="path62"
         inkscape:connector-curvature="0" /></clipPath><clipPath
       clipPathUnits="userSpaceOnUse"
       id="clipPath156"><path
         d="m 380.68,369.402 h 16.007 V 350.213 H 380.68 Z"
         id="path154"
         inkscape:connector-curvature="0" /></clipPath><clipPath
       clipPathUnits="userSpaceOnUse"
       id="clipPath192"><path
         d="m 383.364,370.112 c -1.116,-4.079 1.288,-8.291 5.368,-9.407 v 0 c 4.08,-1.115 8.292,1.288 9.408,5.368 v 0 c 1.115,4.081 -1.288,8.293 -5.369,9.408 v 0 c -0.676,0.185 -1.355,0.273 -2.024,0.273 v 0 c -3.366,0 -6.453,-2.237 -7.383,-5.642"
         id="path190"
         inkscape:connector-curvature="0" /></clipPath><radialGradient
       fx="0"
       fy="0"
       cx="0"
       cy="0"
       r="1"
       gradientUnits="userSpaceOnUse"
       gradientTransform="matrix(-7.3881407,2.0197518,-2.0197518,-7.3881407,390.75171,368.09314)"
       spreadMethod="pad"
       id="radialGradient202"><stop
         style="stop-opacity:1;stop-color:#e89575"
         offset="0"
         id="stop198" /><stop
         style="stop-opacity:1;stop-color:#f2b27e"
         offset="1"
         id="stop200" /></radialGradient><clipPath
       clipPathUnits="userSpaceOnUse"
       id="clipPath212"><path
         d="m 364.338,362.004 c 1.354,0.988 2.395,2.424 2.871,4.165 v 0 c 1.115,4.081 -1.289,8.293 -5.369,9.408 v 0 c -0.58,0.159 -1.161,0.246 -1.736,0.268 v 0 c 0.606,-5.173 2.12,-10.012 4.234,-13.841"
         id="path210"
         inkscape:connector-curvature="0" /></clipPath><radialGradient
       fx="0"
       fy="0"
       cx="0"
       cy="0"
       r="1"
       gradientUnits="userSpaceOnUse"
       gradientTransform="matrix(-7.3881006,2.0197411,-2.0197411,-7.3881006,359.82034,368.18939)"
       spreadMethod="pad"
       id="radialGradient222"><stop
         style="stop-opacity:1;stop-color:#e89575"
         offset="0"
         id="stop218" /><stop
         style="stop-opacity:1;stop-color:#f2b27e"
         offset="1"
         id="stop220" /></radialGradient><clipPath
       clipPathUnits="userSpaceOnUse"
       id="clipPath232"><path
         d="M 0,500 H 750 V 0 H 0 Z"
         id="path230"
         inkscape:connector-curvature="0" /></clipPath><clipPath
       clipPathUnits="userSpaceOnUse"
       id="clipPath260"><path
         d="m 371.083,379.092 c 0.529,-1.528 0.118,-3.339 -1.019,-4.489 v 0 c -0.663,-0.671 -1.561,-1.15 -1.982,-1.995 v 0 c -0.383,-0.768 -0.279,-1.717 0.128,-2.471 v 0 c 0.407,-0.755 1.083,-1.335 1.818,-1.777 v 0 c 0,0 2.31,-0.415 3.821,1.921 v 0 c 1.511,2.334 0.92,5.978 -0.004,8.278 v 0 c -0.365,0.906 -0.871,1.181 -1.351,1.181 v 0 c -0.737,0 -1.411,-0.648 -1.411,-0.648"
         id="path258"
         inkscape:connector-curvature="0" /></clipPath><linearGradient
       x1="0"
       y1="0"
       x2="1"
       y2="0"
       gradientUnits="userSpaceOnUse"
       gradientTransform="matrix(3.5464246,6.1815467,-6.1815467,3.5464246,369.31592,369.18762)"
       spreadMethod="pad"
       id="linearGradient272"><stop
         style="stop-opacity:1;stop-color:#db8965"
         offset="0"
         id="stop266" /><stop
         style="stop-opacity:1;stop-color:#f2b27e"
         offset="0.999628"
         id="stop268" /><stop
         style="stop-opacity:1;stop-color:#f2b27e"
         offset="1"
         id="stop270" /></linearGradient><clipPath
       clipPathUnits="userSpaceOnUse"
       id="clipPath282"><path
         d="M 0,500 H 750 V 0 H 0 Z"
         id="path280"
         inkscape:connector-curvature="0" /></clipPath><clipPath
       clipPathUnits="userSpaceOnUse"
       id="clipPath314"><path
         d="m 360.826,415.483 h 65.061 v -22.895 h -65.061 z"
         id="path312"
         inkscape:connector-curvature="0" /></clipPath><clipPath
       clipPathUnits="userSpaceOnUse"
       id="clipPath394"><path
         d="m 516.092,263.921 c -1.15,-0.532 -2.303,-1.146 -3.133,-2.103 v 0 c -1.5,-1.725 -1.669,-4.331 -0.877,-6.474 v 0 c 0.793,-2.145 2.408,-3.888 4.173,-5.34 v 0 c 1.765,-1.454 3.713,-2.674 5.458,-4.15 v 0 c 5.311,-4.489 -4.174,-4.579 -6.858,-4.938 v 0 c -2.253,-0.301 -4.687,-1.37 -5.424,-3.519 v 0 c -0.577,-1.683 0.052,-3.515 0.676,-5.18 v 0 c 1.395,-3.721 4.229,-8.578 4.138,-12.482 v 0 c -0.095,-3.992 -1.609,-7.899 -1.531,-12.019 v 0 c 0.203,-10.816 5.429,-21.21 13.162,-28.773 v 0 c 7.735,-7.563 17.812,-12.449 28.292,-15.13 v 0 c 11.218,-2.872 23.049,-3.323 34.453,-1.317 v 0 c 4.601,0.809 14.603,1.458 17.449,5.234 v 0 c 3.522,4.673 3.683,12.914 3.387,18.45 v 0 c -0.595,11.181 -4.506,22.031 -10.256,31.639 v 0 c -2.465,4.119 -5.26,8.022 -8.294,11.739 v 0 c -4.043,4.952 -8.511,9.576 -13.184,13.942 v 0 c -4.274,3.992 -8.771,7.814 -13.904,10.612 v 0 c -4.663,2.542 -9.749,4.186 -14.802,5.816 v 0 c -7.164,2.311 -15.851,5.822 -23.952,5.822 v 0 c -3.118,0 -6.149,-0.52 -8.973,-1.829"
         id="path392"
         inkscape:connector-curvature="0" /></clipPath><clipPath
       clipPathUnits="userSpaceOnUse"
       id="clipPath414"><path
         d="M 0,500 H 750 V 0 H 0 Z"
         id="path412"
         inkscape:connector-curvature="0" /></clipPath><clipPath
       clipPathUnits="userSpaceOnUse"
       id="clipPath538"><path
         d="m 624.824,305.872 h 14.167 v -17.19 h -14.167 z"
         id="path536"
         inkscape:connector-curvature="0" /></clipPath><clipPath
       clipPathUnits="userSpaceOnUse"
       id="clipPath574"><path
         d="m 622.476,309.502 c -0.166,-4.377 3.246,-8.061 7.623,-8.228 v 0 c 4.378,-0.167 8.06,3.246 8.229,7.623 v 0 c 0.167,4.377 -3.247,8.06 -7.623,8.228 v 0 c -0.104,0.004 -0.206,0.006 -0.309,0.006 v 0 c -4.24,0 -7.757,-3.355 -7.92,-7.629"
         id="path572"
         inkscape:connector-curvature="0" /></clipPath><radialGradient
       fx="0"
       fy="0"
       cx="0"
       cy="0"
       r="1"
       gradientUnits="userSpaceOnUse"
       gradientTransform="matrix(-7.9253879,0.3029619,-0.3029619,-7.9253879,630.40198,309.19971)"
       spreadMethod="pad"
       id="radialGradient584"><stop
         style="stop-opacity:1;stop-color:#e89575"
         offset="0"
         id="stop580" /><stop
         style="stop-opacity:1;stop-color:#f2b27e"
         offset="1"
         id="stop582" /></radialGradient><clipPath
       clipPathUnits="userSpaceOnUse"
       id="clipPath594"><path
         d="m 597.672,309.824 c 1.826,-5.075 4.489,-9.599 7.52,-12.965 v 0 c 1.133,1.314 1.846,3.007 1.917,4.875 v 0 c 0.167,4.377 -3.246,8.06 -7.624,8.228 v 0 c -0.102,0.004 -0.204,0.006 -0.306,0.006 v 0 c -0.515,0 -1.019,-0.05 -1.507,-0.144"
         id="path592"
         inkscape:connector-curvature="0" /></clipPath><radialGradient
       fx="0"
       fy="0"
       cx="0"
       cy="0"
       r="1"
       gradientUnits="userSpaceOnUse"
       gradientTransform="matrix(-7.9253836,0.3029617,-0.3029617,-7.9253836,599.18341,302.0361)"
       spreadMethod="pad"
       id="radialGradient604"><stop
         style="stop-opacity:1;stop-color:#e89575"
         offset="0"
         id="stop600" /><stop
         style="stop-opacity:1;stop-color:#f2b27e"
         offset="1"
         id="stop602" /></radialGradient><clipPath
       clipPathUnits="userSpaceOnUse"
       id="clipPath614"><path
         d="M 0,500 H 750 V 0 H 0 Z"
         id="path612"
         inkscape:connector-curvature="0" /></clipPath><clipPath
       clipPathUnits="userSpaceOnUse"
       id="clipPath626"><path
         d="m 609.917,300.742 c 0,0 4.211,-3.381 8.825,-1.508 v 0 c 4.614,1.873 4.787,7.777 4.787,7.777 v 0 c -8.86,-3.311 -13.612,-6.269 -13.612,-6.269"
         id="path624"
         inkscape:connector-curvature="0" /></clipPath><clipPath
       clipPathUnits="userSpaceOnUse"
       id="clipPath642"><path
         d="M 0,500 H 750 V 0 H 0 Z"
         id="path640"
         inkscape:connector-curvature="0" /></clipPath><clipPath
       clipPathUnits="userSpaceOnUse"
       id="clipPath674"><path
         d="m 607.984,315.676 c 0.89,-1.417 0.901,-3.34 0.025,-4.767 v 0 c -0.512,-0.833 -1.305,-1.527 -1.531,-2.477 v 0 c -0.205,-0.864 0.122,-1.798 0.709,-2.463 v 0 c 0.588,-0.667 1.407,-1.091 2.251,-1.364 v 0 c 0,0 2.427,0.123 3.403,2.832 v 0 c 0.977,2.71 -0.476,6.247 -1.948,8.35 v 0 c -0.474,0.676 -0.945,0.906 -1.364,0.906 v 0 c -0.885,0 -1.545,-1.017 -1.545,-1.017"
         id="path672"
         inkscape:connector-curvature="0" /></clipPath><linearGradient
       x1="0"
       y1="0"
       x2="1"
       y2="0"
       gradientUnits="userSpaceOnUse"
       gradientTransform="matrix(2.1259162,7.0668807,-7.0668807,2.1259162,608.52563,305.27179)"
       spreadMethod="pad"
       id="linearGradient686"><stop
         style="stop-opacity:1;stop-color:#db8965"
         offset="0"
         id="stop680" /><stop
         style="stop-opacity:1;stop-color:#f2b27e"
         offset="0.999628"
         id="stop682" /><stop
         style="stop-opacity:1;stop-color:#f2b27e"
         offset="1"
         id="stop684" /></linearGradient><clipPath
       clipPathUnits="userSpaceOnUse"
       id="clipPath696"><path
         d="M 0,500 H 750 V 0 H 0 Z"
         id="path694"
         inkscape:connector-curvature="0" /></clipPath><clipPath
       clipPathUnits="userSpaceOnUse"
       id="clipPath724"><path
         d="m 590.411,353.73 h 63.811 v -24.107 h -63.811 z"
         id="path722"
         inkscape:connector-curvature="0" /></clipPath><clipPath
       clipPathUnits="userSpaceOnUse"
       id="clipPath748"><path
         d="m 572.431,286.037 c -1.271,-1.078 -1.841,-2.677 -1.662,-4.217 v 0 c 1.905,-1.558 4.384,-2.93 7.057,-3.655 v 0 c 0.282,0.154 0.553,0.339 0.808,0.555 v 0 c 2.021,1.713 2.271,4.74 0.558,6.76 v 0 c -0.949,1.119 -2.301,1.695 -3.662,1.695 v 0 c -1.096,0 -2.197,-0.374 -3.099,-1.138"
         id="path746"
         inkscape:connector-curvature="0" /></clipPath><radialGradient
       fx="0"
       fy="0"
       cx="0"
       cy="0"
       r="1"
       gradientUnits="userSpaceOnUse"
       gradientTransform="matrix(3.6582451,3.1018579,3.1018579,-3.6582451,575.53314,282.37842)"
       spreadMethod="pad"
       id="radialGradient758"><stop
         style="stop-opacity:1;stop-color:#e89575"
         offset="0"
         id="stop754" /><stop
         style="stop-opacity:1;stop-color:#f2b27e"
         offset="1"
         id="stop756" /></radialGradient><clipPath
       clipPathUnits="userSpaceOnUse"
       id="clipPath768"><path
         d="m 589.961,294.278 c -2.021,-1.713 -2.27,-4.739 -0.557,-6.76 v 0 c 0.835,-0.985 1.982,-1.549 3.173,-1.67 v 0 c 0.564,2.816 0.045,6.028 -1.264,9.239 v 0 c -0.48,-0.188 -0.937,-0.457 -1.352,-0.809"
         id="path766"
         inkscape:connector-curvature="0" /></clipPath><radialGradient
       fx="0"
       fy="0"
       cx="0"
       cy="0"
       r="1"
       gradientUnits="userSpaceOnUse"
       gradientTransform="matrix(3.6582036,3.1018229,3.1018229,-3.6582036,593.06195,290.61996)"
       spreadMethod="pad"
       id="radialGradient778"><stop
         style="stop-opacity:1;stop-color:#e89575"
         offset="0"
         id="stop774" /><stop
         style="stop-opacity:1;stop-color:#f2b27e"
         offset="1"
         id="stop776" /></radialGradient><clipPath
       clipPathUnits="userSpaceOnUse"
       id="clipPath788"><path
         d="M 0,500 H 750 V 0 H 0 Z"
         id="path786"
         inkscape:connector-curvature="0" /></clipPath><clipPath
       clipPathUnits="userSpaceOnUse"
       id="clipPath816"><path
         d="m 582.358,292.792 c 0.084,-1.548 0.713,-3.774 2.188,-4.698 v 0 c 1.476,-0.926 2.677,-0.079 2.677,-0.079 v 0 c 0.301,0.446 0.532,0.953 0.562,1.489 v 0 c 0.031,0.536 -0.162,1.102 -0.581,1.437 v 0 c -0.463,0.367 -1.099,0.402 -1.653,0.608 v 0 c -0.95,0.351 -1.663,1.27 -1.767,2.277 v 0 c 0,0 -0.241,0.082 -0.526,0.082 v 0 c -0.427,0 -0.95,-0.186 -0.9,-1.116"
         id="path814"
         inkscape:connector-curvature="0" /></clipPath><linearGradient
       x1="0"
       y1="0"
       x2="1"
       y2="0"
       gradientUnits="userSpaceOnUse"
       gradientTransform="matrix(-3.6488581,2.5693634,2.5693634,3.6488581,587.40881,288.67325)"
       spreadMethod="pad"
       id="linearGradient828"><stop
         style="stop-opacity:1;stop-color:#db8965"
         offset="0"
         id="stop822" /><stop
         style="stop-opacity:1;stop-color:#f2b27e"
         offset="0.999628"
         id="stop824" /><stop
         style="stop-opacity:1;stop-color:#f2b27e"
         offset="1"
         id="stop826" /></linearGradient><clipPath
       clipPathUnits="userSpaceOnUse"
       id="clipPath838"><path
         d="M 0,500 H 750 V 0 H 0 Z"
         id="path836"
         inkscape:connector-curvature="0" /></clipPath><clipPath
       clipPathUnits="userSpaceOnUse"
       id="clipPath898"><path
         d="m 691.918,274.78 c -0.912,-0.627 -1.768,-1.333 -2.53,-2.06 v 0 c -12.871,-12.28 -18.52,-30.989 -32.371,-42.152 v 0 c -5.902,-4.758 -12.941,-7.835 -19.68,-11.308 v 0 C 614.496,207.487 594.179,190.406 580.05,168.942 v 0 c -1.076,-1.634 -3.643,-5.839 -1.336,-7.437 v 0 c 1.677,-1.164 7.969,0.65 9.907,0.991 v 0 c 11.926,2.099 23.463,6.85 35.571,6.974 v 0 c 5.175,0.053 10.324,-0.746 15.465,-1.544 v 0 c 6.422,-0.999 12.831,-1.996 19.265,-1.332 v 0 c 12.089,1.245 23.104,8.458 30.468,18.126 v 0 c 3.889,5.106 6.682,10.895 10.373,16.142 v 0 c 3.727,5.302 6.966,10.949 9.675,16.838 v 0 c 2.942,6.396 5.26,13.08 6.903,19.926 v 0 c 1.512,6.3 4.076,11.974 4.324,18.622 v 0 c 0.101,2.752 -0.233,5.864 -2.374,7.597 v 0 c -0.995,0.805 -2.256,1.195 -3.502,1.479 v 0 c -1.49,0.338 -3.109,0.538 -4.503,-0.09 v 0 c -1.418,-0.638 -2.342,-2.007 -3.514,-3.029 v 0 c -1.549,-1.35 -4.183,-1.991 -3.818,0.476 v 0 c 0.314,2.119 1.829,4.101 1.968,6.464 v 0 c 0.155,2.624 -0.738,5.465 -2.894,6.97 v 0 c -1.091,0.761 -2.295,1.085 -3.539,1.085 v 0 c -2.202,0 -4.529,-1.016 -6.571,-2.42"
         id="path896"
         inkscape:connector-curvature="0" /></clipPath><clipPath
       clipPathUnits="userSpaceOnUse"
       id="clipPath918"><path
         d="M 0,500 H 750 V 0 H 0 Z"
         id="path916"
         inkscape:connector-curvature="0" /></clipPath><clipPath
       clipPathUnits="userSpaceOnUse"
       id="clipPath946"><path
         d="m 215.237,323.825 c -10.297,-2.005 -20.005,-7.469 -28.108,-14.026 v 0 c -9.379,-7.592 -17.678,-16.793 -28.568,-22.317 v 0 c -13.655,-6.927 -30.149,-7.028 -44.7,-2.266 v 0 c -9.603,3.142 -18.451,8.282 -26.384,14.497 v 0 c -1.589,1.244 -3.12,2.789 -4.665,4.334 v 0 c -2.048,2.048 -4.117,4.1 -6.371,5.463 v 0 c -3.533,2.137 -8.417,3.432 -12.248,5.388 v 0 c -2.141,1.094 -4.302,2.286 -6.686,2.601 v 0 c -2.383,0.314 -5.092,-0.475 -6.307,-2.549 v 0 c -1.382,-2.36 -0.413,-5.318 -0.127,-8.037 v 0 c 0.031,-0.286 0.05,-0.587 -0.074,-0.846 v 0 c -0.227,-0.475 -0.825,-0.618 -1.347,-0.685 v 0 c -1.989,-0.258 -4.004,-0.233 -5.994,-0.209 v 0 c -4.81,0.059 -9.478,0.12 -13.304,-3.803 v 0 c -5.38,-5.516 0.1,-9.979 3.453,-14.742 v 0 c 4.247,-6.033 8.11,-12.339 11.557,-18.864 v 0 c 5.792,-10.963 10.405,-22.545 13.825,-34.463 v 0 c 2.395,-8.347 4.379,-17.327 9.657,-24.426 v 0 c 5.512,-7.415 17.102,-7.997 25.021,-12.41 v 0 c 10.308,-5.744 17.972,-15.185 27.205,-22.534 v 0 c 8.829,-7.028 19.167,-12.15 30.107,-14.916 v 0 c 10.222,-2.584 21.122,-3.094 31.266,-0.221 v 0 c 10.143,2.875 19.457,9.339 24.667,18.503 v 0 c 7.212,12.685 5.871,28.445 10.474,42.291 v 0 c 2.246,6.76 5.882,12.968 8.563,19.569 v 0 c 3.963,9.754 5.789,20.365 5.353,30.884 v 0 c -0.416,10.008 -0.813,19.044 4.822,27.943 v 0 c 2.171,3.431 4.962,6.508 6.554,10.243 v 0 c 0.533,1.254 0.928,2.647 0.61,3.971 v 0 c -0.589,2.447 -3.413,3.74 -5.93,3.68 v 0 c -2.517,-0.059 -4.898,-1.083 -7.356,-1.626 v 0 c -0.573,-0.126 -1.181,-0.226 -1.74,-0.047 v 0 c -1.962,0.628 -1.51,3.468 -1.973,5.474 v 0 c -0.5,2.163 -2.508,3.732 -4.654,4.293 v 0 c -0.856,0.223 -1.731,0.312 -2.612,0.312 v 0 c -1.331,0 -2.676,-0.204 -3.986,-0.459"
         id="path944"
         inkscape:connector-curvature="0" /></clipPath><clipPath
       clipPathUnits="userSpaceOnUse"
       id="clipPath978"><path
         d="M 0,500 H 750 V 0 H 0 Z"
         id="path976"
         inkscape:connector-curvature="0" /></clipPath><clipPath
       clipPathUnits="userSpaceOnUse"
       id="clipPath1070"><path
         d="m 114.682,345.444 h 14.984 V 326.03 h -14.984 z"
         id="path1068"
         inkscape:connector-curvature="0" /></clipPath><clipPath
       clipPathUnits="userSpaceOnUse"
       id="clipPath1090"><path
         d="m 119.191,352.352 c -4.031,-1.091 -6.415,-5.242 -5.324,-9.273 v 0 c 1.09,-4.031 5.242,-6.414 9.272,-5.324 v 0 c 4.031,1.09 6.415,5.241 5.325,9.272 v 0 c -0.912,3.37 -3.963,5.589 -7.295,5.589 v 0 c -0.653,0 -1.317,-0.086 -1.978,-0.264"
         id="path1088"
         inkscape:connector-curvature="0" /></clipPath><radialGradient
       fx="0"
       fy="0"
       cx="0"
       cy="0"
       r="1"
       gradientUnits="userSpaceOnUse"
       gradientTransform="matrix(7.2984943,1.9741395,1.9741395,-7.2984943,121.1653,345.05316)"
       spreadMethod="pad"
       id="radialGradient1100"><stop
         style="stop-opacity:1;stop-color:#a55d47"
         offset="0"
         id="stop1096" /><stop
         style="stop-opacity:1;stop-color:#b27449"
         offset="1"
         id="stop1098" /></radialGradient><clipPath
       clipPathUnits="userSpaceOnUse"
       id="clipPath1110"><path
         d="m 149.725,352.364 c -4.03,-1.089 -6.414,-5.241 -5.325,-9.272 v 0 c 0.466,-1.72 1.489,-3.141 2.822,-4.119 v 0 c 2.097,3.774 3.605,8.546 4.217,13.651 v 0 c -0.568,-0.02 -1.142,-0.105 -1.714,-0.26"
         id="path1108"
         inkscape:connector-curvature="0" /></clipPath><radialGradient
       fx="0"
       fy="0"
       cx="0"
       cy="0"
       r="1"
       gradientUnits="userSpaceOnUse"
       gradientTransform="matrix(7.2984772,1.9741348,1.9741348,-7.2984772,151.69922,345.06598)"
       spreadMethod="pad"
       id="radialGradient1120"><stop
         style="stop-opacity:1;stop-color:#a55d47"
         offset="0"
         id="stop1116" /><stop
         style="stop-opacity:1;stop-color:#b27449"
         offset="1"
         id="stop1118" /></radialGradient><clipPath
       clipPathUnits="userSpaceOnUse"
       id="clipPath1130"><path
         d="M 0,500 H 750 V 0 H 0 Z"
         id="path1128"
         inkscape:connector-curvature="0" /></clipPath><clipPath
       clipPathUnits="userSpaceOnUse"
       id="clipPath1166"><path
         d="m 137.883,355.34 c -0.919,-2.268 -1.512,-5.865 -0.027,-8.173 v 0 c 1.486,-2.309 3.767,-1.905 3.767,-1.905 v 0 c 0.726,0.434 1.396,1.004 1.8,1.748 v 0 c 0.403,0.744 0.508,1.681 0.132,2.44 v 0 c -0.413,0.834 -1.298,1.31 -1.951,1.974 v 0 c -1.119,1.138 -1.52,2.928 -0.994,4.434 v 0 c 0,0 -0.666,0.644 -1.395,0.644 v 0 c -0.472,0 -0.971,-0.271 -1.332,-1.162"
         id="path1164"
         inkscape:connector-curvature="0" /></clipPath><linearGradient
       x1="0"
       y1="0"
       x2="1"
       y2="0"
       gradientUnits="userSpaceOnUse"
       gradientTransform="matrix(-3.4844215,6.1115389,6.1115389,3.4844215,142.32835,346.0766)"
       spreadMethod="pad"
       id="linearGradient1176"><stop
         style="stop-opacity:1;stop-color:#9a5331"
         offset="0"
         id="stop1172" /><stop
         style="stop-opacity:1;stop-color:#b27449"
         offset="1"
         id="stop1174" /></linearGradient><clipPath
       clipPathUnits="userSpaceOnUse"
       id="clipPath1186"><path
         d="M 0,500 H 750 V 0 H 0 Z"
         id="path1184"
         inkscape:connector-curvature="0" /></clipPath><clipPath
       clipPathUnits="userSpaceOnUse"
       id="clipPath1210"><path
         d="M 98.7404,388.85 H 148.554 V 368.672 H 98.7404 Z"
         id="path1208"
         inkscape:connector-curvature="0" /></clipPath></defs><sodipodi:namedview
     pagecolor="#ffffff"
     bordercolor="#666666"
     borderopacity="1"
     objecttolerance="10"
     gridtolerance="10"
     guidetolerance="10"
     inkscape:pageopacity="0"
     inkscape:pageshadow="2"
     inkscape:window-width="3840"
     inkscape:window-height="2036"
     id="namedview4"
     showgrid="false"
     inkscape:zoom="1.9629284"
     inkscape:cx="-55.900187"
     inkscape:cy="346.05772"
     inkscape:window-x="0"
     inkscape:window-y="27"
     inkscape:window-maximized="1"
     inkscape:current-layer="g10" /><g
     id="g10"
     inkscape:groupmode="layer"
     inkscape:label="4365856"
     transform="matrix(1.3333333,0,0,-1.3333333,-373.45427,560.82486)"><g
       id="g14"><g
         id="g16"
         clip-path="url(#clipPath20)"><g
           id="g22"
           transform="translate(432.986,207.3034)"><path
             d="m 0,0 c -5.348,-2.881 -11.155,-4.851 -16.454,-7.821 -9.452,-5.3 -16.977,-13.606 -26.539,-18.704 -9.868,-5.263 -21.377,-6.787 -32.549,-6.286 -11.833,0.531 -23.763,3.33 -33.794,9.627 -10.031,6.299 -17.997,16.357 -20.269,27.981 -2.176,11.136 0.881,22.672 -0.257,33.961 -1.184,11.741 -6.809,22.521 -9.893,33.911 -2.949,10.893 -3.55,22.415 -1.748,33.555 1.682,10.408 5.539,20.616 12.201,28.787 6.662,8.171 16.29,14.156 26.771,15.303 14.504,1.588 28.439,-5.895 42.975,-7.164 7.097,-0.619 14.238,0.256 21.36,0.099 12.557,-0.277 25.029,-3.83 35.847,-10.213 9.145,-5.396 17.361,-13.188 20.811,-23.229 2.396,-6.973 2.35,-14.506 2.562,-21.875 C 21.436,73.729 22.278,58.768 25.695,44.93 28.486,33.628 24.114,23.715 17.05,14.57 12.448,8.612 6.634,3.574 0,0"
             style="fill:#fff2f2;fill-opacity:1;fill-rule:nonzero;stroke:none"
             id="path24"
             inkscape:connector-curvature="0" /></g></g></g><g
       id="g26"><g
         id="g28"
         clip-path="url(#clipPath32)"><g
           id="g34"
           transform="translate(414.6891,258.9846)"><path
             d="M 0,0 C 8.327,14.062 17.776,27.589 29.487,38.987 41.199,50.385 55.299,59.621 71.02,64.084 64.002,56.356 59.998,46.361 57.177,36.311 54.355,26.26 52.57,15.918 49.236,6.025 43.185,-11.932 32.178,-27.9 19.321,-41.823 12.747,-48.943 5.669,-55.581 -1.623,-61.958 c -4.95,-4.331 -12.131,-13.165 -19.597,-12.334 -11.735,1.308 3.816,39.003 6.538,45.49 C -10.507,-18.856 -5.494,-9.276 0,0"
             style="fill:#ffcccc;fill-opacity:1;fill-rule:nonzero;stroke:none"
             id="path36"
             inkscape:connector-curvature="0" /></g><g
           id="g38"
           transform="translate(485.7086,323.0685)"><path
             d="M 0,0 C 0,0 -65.347,-59.2 -92.239,-138.375"
             style="fill:none;stroke:#000000;stroke-width:0.5;stroke-linecap:round;stroke-linejoin:round;stroke-miterlimit:10;stroke-dasharray:none;stroke-opacity:1"
             id="path40"
             inkscape:connector-curvature="0" /></g><g
           id="g42"
           transform="translate(339.1466,249.9377)"><path
             d="m 0,0 c -5.758,15.295 -12.712,30.258 -22.265,43.518 -9.552,13.26 -21.832,24.805 -36.539,31.932 5.569,-8.83 7.775,-19.368 8.806,-29.756 1.032,-10.388 0.994,-20.883 2.558,-31.204 2.838,-18.737 10.904,-36.373 21.145,-52.319 5.237,-8.154 11.054,-15.921 17.127,-23.469 4.122,-5.124 9.659,-15.072 17.156,-15.55 11.783,-0.752 3.019,39.072 1.465,45.933 C 7.07,-20.395 3.798,-10.089 0,0"
             style="fill:#ffcccc;fill-opacity:1;fill-rule:nonzero;stroke:none"
             id="path44"
             inkscape:connector-curvature="0" /></g><g
           id="g46"
           transform="translate(280.3429,325.3879)"><path
             d="M 0,0 C 0,0 54.065,-69.655 66.792,-152.298"
             style="fill:none;stroke:#000000;stroke-width:0.5;stroke-linecap:round;stroke-linejoin:round;stroke-miterlimit:10;stroke-dasharray:none;stroke-opacity:1"
             id="path48"
             inkscape:connector-curvature="0" /></g><g
           id="g50"
           transform="translate(406.8375,198.5153)"><path
             d="M 0,0 C 11.614,13.433 23.802,26.553 38.17,36.987 52.538,47.422 69.313,55.111 87.016,56.504 70.268,52.572 55.233,43.131 42.297,31.789 32.967,23.609 24.6,14.415 16.442,5.087 12.395,0.458 8.507,-4.354 4.273,-8.815 1.724,-11.504 -2.56,-15.822 -6.544,-12.566 -10.453,-9.371 -2.157,-2.494 0,0"
             style="fill:#ff9999;fill-opacity:1;fill-rule:nonzero;stroke:none"
             id="path52"
             inkscape:connector-curvature="0" /></g><g
           id="g54"
           transform="translate(343.5421,176.7331)"><path
             d="m 0,0 c -5.833,16.771 -12.313,33.466 -21.811,48.47 -9.498,15.004 -22.247,28.344 -38.183,36.177 14.112,-9.84 24.596,-24.167 32.428,-39.484 5.649,-11.048 10.029,-22.682 14.165,-34.363 2.052,-5.797 3.888,-11.705 6.173,-17.414 1.377,-3.441 3.763,-9.034 8.667,-7.481 C 6.253,-12.57 1.083,-3.115 0,0"
             style="fill:#ff9999;fill-opacity:1;fill-rule:nonzero;stroke:none"
             id="path56"
             inkscape:connector-curvature="0" /></g></g></g><g
       id="g58"><g
         id="g60"
         clip-path="url(#clipPath64)"><g
           id="g66"
           transform="translate(394.5992,420.5993)"><path
             d="m 0,0 c -6.95,0.153 -14.03,-0.571 -20.447,-3.245 -6.417,-2.674 -12.139,-7.467 -14.921,-13.838 -1.208,-2.767 -1.84,-5.75 -2.299,-8.733 -1.767,-11.484 -1.076,-23.181 -1.184,-34.799 -0.109,-11.618 -1.095,-23.517 -5.935,-34.079 9.574,-6.818 21.954,-7.955 33.691,-8.584 13.103,-0.701 26.585,-0.998 38.949,3.397 0.001,2.638 0.003,5.276 0.005,7.913 0.828,-2.811 2.773,-5.277 5.314,-6.736 -2.633,8.397 -2.37,17.39 -2.081,26.185 0.28,8.549 0.561,17.099 0.842,25.648 0.221,6.747 0.437,13.565 -0.866,20.189 C 28.976,-16.038 21.507,-4.543 10.624,-1.436 7.179,-0.451 3.573,-0.078 0,0"
             style="fill:#5e4028;fill-opacity:1;fill-rule:nonzero;stroke:none"
             id="path68"
             inkscape:connector-curvature="0" /></g><g
           id="g70"
           transform="translate(359.7692,99.528)"><path
             d="m 0,0 c 1.661,-1.341 2.626,-3.658 1.977,-5.691 3.714,0.017 7.417,0.812 10.828,2.284 -0.047,0.288 -0.094,0.579 -0.143,0.886 -0.046,0.289 -0.093,0.585 -0.141,0.887 -0.7,4.426 -1.529,10.117 -1.354,12.602 0.246,3.489 0.506,6.66 0.764,9.609 L -2.914,19.788 c 0.14,-2.052 0.227,-3.66 0.242,-4.632 C -2.63,12.343 -2.644,9.473 -3.527,6.802 -4.169,4.861 -5.295,3.488 -6.629,2.246 -6.836,2.053 -7.054,1.865 -7.27,1.676 -6.854,1.74 -6.432,1.78 -6.014,1.787 -3.88,1.822 -1.661,1.341 0,0"
             style="fill:#f2b27e;fill-opacity:1;fill-rule:nonzero;stroke:none"
             id="path72"
             inkscape:connector-curvature="0" /></g><g
           id="g74"
           transform="translate(372.5739,96.1208)"><path
             d="m 0,0 c -3.411,-1.472 -7.113,-2.267 -10.828,-2.284 0.649,2.033 -0.316,4.35 -1.977,5.691 -1.66,1.341 -3.88,1.822 -6.014,1.787 -0.418,-0.007 -0.84,-0.047 -1.255,-0.111 -0.417,-0.364 -0.843,-0.727 -1.285,-1.089 -0.254,-0.208 -0.51,-0.418 -0.767,-0.632 -1.541,-1.28 -4.65,-2.963 -7.619,-4.594 -3.07,-1.687 -5.991,-3.32 -6.871,-4.393 -1.403,-1.711 -1.919,-4.3 0.357,-5.39 3.612,-1.729 8.882,-1.435 12.703,-0.724 4.498,0.837 8.807,2.478 13.323,3.241 2.733,0.461 10.865,0.241 10.841,4.414 -0.001,0.16 -0.058,0.59 -0.15,1.204 C 0.348,-2.153 0.186,-1.155 0,0"
             style="fill:#fff2f2;fill-opacity:1;fill-rule:nonzero;stroke:none"
             id="path76"
             inkscape:connector-curvature="0" /></g><g
           id="g78"
           transform="translate(334.8932,88.4811)"><path
             d="m 0,0 c 0.144,-0.753 0.607,-1.419 1.508,-1.851 3.612,-1.729 8.882,-1.435 12.703,-0.724 4.499,0.837 8.808,2.478 13.323,3.241 2.526,0.427 9.661,0.271 10.712,3.537"
             style="fill:none;stroke:#000000;stroke-width:0.5;stroke-linecap:round;stroke-linejoin:round;stroke-miterlimit:10;stroke-dasharray:none;stroke-opacity:1"
             id="path80"
             inkscape:connector-curvature="0" /></g><g
           id="g82"
           transform="translate(368.7482,102.1013)"><path
             d="M 0,0 C -0.329,-1.578 -1.393,-2.987 -2.82,-3.737"
             style="fill:none;stroke:#000000;stroke-width:0.5;stroke-linecap:round;stroke-linejoin:round;stroke-miterlimit:10;stroke-dasharray:none;stroke-opacity:1"
             id="path84"
             inkscape:connector-curvature="0" /></g><g
           id="g86"
           transform="translate(392.0504,95.9597)"><path
             d="m 0,0 c -1.728,-1.253 -2.812,-3.517 -2.269,-5.581 -3.709,0.21 -7.365,1.196 -10.695,2.843 0.062,0.285 0.123,0.573 0.189,0.877 0.061,0.286 0.124,0.58 0.187,0.88 0.929,4.382 2.052,10.023 2.005,12.513 -0.064,3.497 -0.16,6.677 -0.265,9.636 L 3.937,19.61 C 3.69,17.568 3.52,15.967 3.454,14.997 3.267,12.19 3.132,9.323 3.876,6.609 4.416,4.639 5.47,3.209 6.736,1.899 6.934,1.695 7.142,1.497 7.347,1.297 6.936,1.384 6.517,1.445 6.099,1.474 3.97,1.619 1.729,1.253 0,0"
             style="fill:#f2b27e;fill-opacity:1;fill-rule:nonzero;stroke:none"
             id="path88"
             inkscape:connector-curvature="0" /></g><g
           id="g90"
           transform="translate(379.0865,93.2214)"><path
             d="m 0,0 c 3.33,-1.646 6.986,-2.633 10.695,-2.843 -0.543,2.065 0.541,4.328 2.269,5.581 1.728,1.253 3.97,1.619 6.098,1.474 0.418,-0.028 0.837,-0.09 1.249,-0.177 0.397,-0.386 0.804,-0.768 1.227,-1.154 0.242,-0.221 0.486,-0.443 0.733,-0.67 1.472,-1.358 4.49,-3.2 7.371,-4.983 2.978,-1.845 5.81,-3.626 6.633,-4.745 1.313,-1.781 1.694,-4.392 -0.635,-5.363 -3.697,-1.54 -8.945,-0.974 -12.724,-0.065 -4.449,1.069 -8.667,2.931 -13.137,3.927 -2.706,0.603 -10.839,0.805 -10.598,4.97 0.009,0.16 0.089,0.587 0.213,1.195 C -0.459,-2.133 -0.245,-1.145 0,0"
             style="fill:#fff2f2;fill-opacity:1;fill-rule:nonzero;stroke:none"
             id="path92"
             inkscape:connector-curvature="0" /></g><g
           id="g94"
           transform="translate(416.3209,83.6384)"><path
             d="m 0,0 c -0.184,-0.745 -0.681,-1.386 -1.603,-1.771 -3.696,-1.54 -8.944,-0.972 -12.723,-0.064 -4.449,1.069 -8.667,2.932 -13.137,3.928 -2.5,0.556 -9.634,0.771 -10.514,4.087"
             style="fill:none;stroke:#000000;stroke-width:0.5;stroke-linecap:round;stroke-linejoin:round;stroke-miterlimit:10;stroke-dasharray:none;stroke-opacity:1"
             id="path96"
             inkscape:connector-curvature="0" /></g><g
           id="g98"
           transform="translate(383.2174,98.9958)"><path
             d="M 0,0 C 0.246,-1.594 1.235,-3.057 2.623,-3.879"
             style="fill:none;stroke:#000000;stroke-width:0.5;stroke-linecap:round;stroke-linejoin:round;stroke-miterlimit:10;stroke-dasharray:none;stroke-opacity:1"
             id="path100"
             inkscape:connector-curvature="0" /></g><g
           id="g102"
           transform="translate(351.2062,270.7575)"><path
             d="m 0,0 c -15.564,-30.688 -6.773,-81.955 -6.752,-96.559 0.021,-14.602 8.068,-70.814 8.068,-70.814 0,0 3.185,-2.023 9.442,-3.01 6.257,-0.986 11.134,2.207 11.134,2.207 0,0 -0.649,60.417 -0.424,73.327 0.225,12.91 4.582,53.621 4.582,53.621 l -0.693,38.243 z"
             style="fill:#cc9864;fill-opacity:1;fill-rule:nonzero;stroke:none"
             id="path104"
             inkscape:connector-curvature="0" /></g><g
           id="g106"
           transform="translate(396.3014,269.8576)"><path
             d="m 0,0 c 14.84,-31.045 4.848,-82.091 4.484,-96.69 -0.364,-14.599 -3.152,-69.967 -3.152,-69.967 0,0 -3.034,-2.243 -9.205,-3.67 -6.172,-1.426 -11.262,1.413 -11.262,1.413 0,0 -4.632,61.684 -4.553,74.595 0.078,12.911 -7.361,53.819 -7.361,53.819 l 5.629,38.111 z"
             style="fill:#cc9864;fill-opacity:1;fill-rule:nonzero;stroke:none"
             id="path108"
             inkscape:connector-curvature="0" /></g><g
           id="g110"
           transform="translate(372.8395,167.3679)"><path
             d="M 0,0 C -0.153,3.501 -0.237,6.331 -0.226,8.171 -0.148,21.082 -7.587,61.99 -7.587,61.99 l -15.801,6.168"
             style="fill:none;stroke:#000000;stroke-width:0.5;stroke-linecap:round;stroke-linejoin:round;stroke-miterlimit:10;stroke-dasharray:none;stroke-opacity:1"
             id="path112"
             inkscape:connector-curvature="0" /></g><g
           id="g114"
           transform="translate(365.2526,229.3581)"><path
             d="M 0,0 -15.95,0.413"
             style="fill:none;stroke:#000000;stroke-width:0.5;stroke-linecap:round;stroke-linejoin:round;stroke-miterlimit:10;stroke-dasharray:none;stroke-opacity:1"
             id="path116"
             inkscape:connector-curvature="0" /></g><g
           id="g118"
           transform="translate(400.276,236.6403)"><path
             d="M 0,0 C -6.513,4.789 -10.511,13.485 -10.188,22.161"
             style="fill:none;stroke:#000000;stroke-width:0.5;stroke-linecap:round;stroke-linejoin:round;stroke-miterlimit:10;stroke-dasharray:none;stroke-opacity:1"
             id="path120"
             inkscape:connector-curvature="0" /></g><g
           id="g122"
           transform="translate(368.5275,341.8693)"><path
             d="m 0,0 c 0,0 -6.697,-1.277 -9.148,-3.312 -2.451,-2.035 -16.826,-36.137 -16.826,-36.137 0,0 -4.569,-8.575 2.373,-12.503 6.944,-3.927 12.344,7.774 12.344,7.774 L 5.837,-9.247 Z"
             style="fill:#f2b27e;fill-opacity:1;fill-rule:nonzero;stroke:none"
             id="path124"
             inkscape:connector-curvature="0" /></g><g
           id="g126"
           transform="translate(368.5275,341.8693)"><path
             d="m 0,0 c 0,0 -6.998,-0.56 -11.273,-4.212 -4.277,-3.652 -10.378,-18.547 -10.378,-18.547 0,0 9.22,-7.905 23.322,-7.992 0,0 15.196,24.921 -1.671,30.751"
             style="fill:#cf6969;fill-opacity:1;fill-rule:nonzero;stroke:none"
             id="path128"
             inkscape:connector-curvature="0" /></g><g
           id="g130"
           transform="translate(375.0709,344.8854)"><path
             d="m 0,0 c 2.344,1.361 4.52,3.244 5.727,6.243 2.371,5.894 0.394,10.734 0.394,10.734 l 15.495,7.54 c 0,0 -3.713,-17.072 -1.868,-22.493 0.363,-1.065 1.119,-1.947 2.099,-2.7 C 18.562,-2.558 8.866,-8.275 2.644,-13.678 2.644,-13.678 -0.335,-7.173 0,0"
             style="fill:#f2b27e;fill-opacity:1;fill-rule:nonzero;stroke:none"
             id="path132"
             inkscape:connector-curvature="0" /></g><g
           id="g134"
           transform="translate(397.5153,319.3395)"><path
             d="M 0,0 C -0.786,8.098 4.812,17.997 6.979,21.482 9.542,20.647 11.722,19.955 12.193,19.009 13.371,16.643 14.652,7.5 7.014,-7.835 6.417,-9.034 5.827,-10.16 5.246,-11.235 3.414,-9.796 0.638,-6.572 0,0"
             style="fill:#f2b27e;fill-opacity:1;fill-rule:nonzero;stroke:none"
             id="path136"
             inkscape:connector-curvature="0" /></g><g
           id="g138"
           transform="translate(373.5182,306.1677)"><path
             d="M 0,0 C 0,0 3.323,-6.332 11.817,-7.209"
             style="fill:none;stroke:#000000;stroke-width:0.5;stroke-linecap:round;stroke-linejoin:round;stroke-miterlimit:10;stroke-dasharray:none;stroke-opacity:1"
             id="path140"
             inkscape:connector-curvature="0" /></g><g
           id="g142"
           transform="translate(383.7125,277.2717)"><path
             d="M 0,0 C 0,0 -10.568,-16.371 -22.899,-13.62"
             style="fill:none;stroke:#000000;stroke-width:0.5;stroke-linecap:round;stroke-linejoin:round;stroke-miterlimit:10;stroke-dasharray:none;stroke-opacity:1"
             id="path144"
             inkscape:connector-curvature="0" /></g><g
           id="g146"
           transform="translate(353.1378,315.2018)"><path
             d="m 0,0 c 0.062,0.592 0.146,1.13 0.257,1.6 0.693,2.941 3.818,9.27 7.17,14.851"
             style="fill:none;stroke:#000000;stroke-width:0.5;stroke-linecap:round;stroke-linejoin:round;stroke-miterlimit:10;stroke-dasharray:none;stroke-opacity:1"
             id="path148"
             inkscape:connector-curvature="0" /></g><g
           id="g150"><g
             id="g152" /><g
             id="g164"><g
               clip-path="url(#clipPath156)"
               id="g162"
               style="opacity:0.69999701"><g
                 transform="translate(382.775,350.2189)"
                 id="g160"><path
                   d="m 0,0 c -0.849,0.04 -1.536,0.277 -2.095,0.656 0.037,0.086 0.081,0.165 0.117,0.253 2.372,5.895 0.395,10.735 0.395,10.735 l 15.495,7.54 c 0,0 -0.896,-4.129 -1.59,-8.968 C 10.225,6.928 5.059,-0.237 0,0"
                   style="fill:#f2b27e;fill-opacity:1;fill-rule:nonzero;stroke:none"
                   id="path158"
                   inkscape:connector-curvature="0" /></g></g></g></g><g
           id="g166"
           transform="translate(407.2985,281.5334)"><path
             d="m 0,0 c -1.852,9.105 -4.537,26.571 -4.537,26.571 0,0 -4.609,4.663 -5.246,11.235 -0.786,8.098 4.812,17.997 6.978,21.483 -2.022,0.659 -4.283,1.409 -6.135,2.443 -0.52,0.29 -1,0.605 -1.441,0.944 -3.285,-1.882 -12.98,-7.599 -19.203,-13.002 0,0 -2.979,6.505 -2.644,13.678 -0.335,-0.195 -0.674,-0.379 -1.015,-0.554 -1.954,-1.007 -3.945,-1.721 -5.528,-2.462 -3.783,-1.771 -13.82,-19.496 -15.132,-25.068 -0.956,-4.056 0.03,-13.259 0.637,-17.971 -14.276,-2.715 -24.915,-16.061 -26.018,-32.346 -1.295,-19.113 6.68,-56.924 6.68,-56.924 0,0 7.17,-7.201 29.082,-9.872 21.912,-2.671 48.063,3.39 48.063,3.39 0,0 2.744,42.619 -4.541,78.455"
             style="fill:#cf6969;fill-opacity:1;fill-rule:nonzero;stroke:none"
             id="path168"
             inkscape:connector-curvature="0" /></g><g
           id="g170"
           transform="translate(405.8688,340.3698)"><path
             d="m 0,0 c 0,0 7.382,-2.363 9.399,-7.89 2.018,-5.526 4.691,-41.321 4.691,-41.321 0,0 0.215,-8.361 -5.854,-9.068 -6.068,-0.707 -9.348,5.748 -10.235,10.654 -0.886,4.904 -4.033,33.509 -4.033,33.509 z"
             style="fill:#f2b27e;fill-opacity:1;fill-rule:nonzero;stroke:none"
             id="path172"
             inkscape:connector-curvature="0" /></g><g
           id="g174"
           transform="translate(404.4938,340.822)"><path
             d="m 0,0 c 0,0 7.584,-0.8 11.899,-8.293 4.315,-7.494 4.171,-18.301 4.171,-18.301 0,0 -7.702,-8.015 -25.108,-5.104 0,0 -3.392,22.617 9.038,31.698"
             style="fill:#cf6969;fill-opacity:1;fill-rule:nonzero;stroke:none"
             id="path176"
             inkscape:connector-curvature="0" /></g><g
           id="g178"
           transform="translate(401.8512,308.4982)"><path
             d="m 0,0 c -1.966,0.047 -4.096,0.241 -6.396,0.625 0,0 -1.281,8.544 0.618,17.237"
             style="fill:none;stroke:#000000;stroke-width:0.5;stroke-linecap:round;stroke-linejoin:round;stroke-miterlimit:10;stroke-dasharray:none;stroke-opacity:1"
             id="path180"
             inkscape:connector-curvature="0" /></g><g
           id="g182"
           transform="translate(361.1364,391.0368)"><path
             d="m 0,0 c -4.322,-15.812 2.535,-34.533 11.824,-37.072 13.024,-3.56 30.965,6.871 35.287,22.683 C 51.435,1.423 45.751,18.313 32.728,21.873 19.703,25.433 4.323,15.812 0,0"
             style="fill:#f2b27e;fill-opacity:1;fill-rule:nonzero;stroke:none"
             id="path184"
             inkscape:connector-curvature="0" /></g></g></g><g
       id="g186"><g
         id="g188"
         clip-path="url(#clipPath192)"><g
           id="g194"><g
             id="g196"><path
               d="m 383.364,370.112 c -1.116,-4.079 1.288,-8.291 5.368,-9.407 v 0 c 4.08,-1.115 8.292,1.288 9.408,5.368 v 0 c 1.115,4.081 -1.288,8.293 -5.369,9.408 v 0 c -0.676,0.185 -1.355,0.273 -2.024,0.273 v 0 c -3.366,0 -6.453,-2.237 -7.383,-5.642"
               style="fill:url(#radialGradient202);stroke:none"
               id="path204"
               inkscape:connector-curvature="0" /></g></g></g></g><g
       id="g206"><g
         id="g208"
         clip-path="url(#clipPath212)"><g
           id="g214"><g
             id="g216"><path
               d="m 364.338,362.004 c 1.354,0.988 2.395,2.424 2.871,4.165 v 0 c 1.115,4.081 -1.289,8.293 -5.369,9.408 v 0 c -0.58,0.159 -1.161,0.246 -1.736,0.268 v 0 c 0.606,-5.173 2.12,-10.012 4.234,-13.841"
               style="fill:url(#radialGradient222);stroke:none"
               id="path224"
               inkscape:connector-curvature="0" /></g></g></g></g><g
       id="g226"><g
         id="g228"
         clip-path="url(#clipPath232)"><g
           id="g234"
           transform="translate(380.2487,366.0485)"><path
             d="m 0,0 c 0,0 -1.758,-2.91 -4.919,-2.947 -3.161,-0.036 -4.578,2.399 -4.578,2.399"
             style="fill:none;stroke:#000000;stroke-width:0.5;stroke-linecap:round;stroke-linejoin:round;stroke-miterlimit:10;stroke-dasharray:none;stroke-opacity:1"
             id="path236"
             inkscape:connector-curvature="0" /></g><g
           id="g238"
           transform="translate(376.1725,383.4704)"><path
             d="M 0,0 C 0.916,0.909 1.909,1.675 2.973,2.242 4.042,2.789 5.188,3.125 6.35,3.091 7.512,3.093 8.668,2.756 9.78,2.256 10.897,1.758 11.959,1.079 13.049,0.379 12.294,1.432 11.346,2.358 10.213,3.06 9.658,3.432 9.031,3.691 8.393,3.927 7.739,4.125 7.054,4.242 6.36,4.26 4.966,4.278 3.589,3.801 2.496,3.016 1.402,2.231 0.522,1.191 0,0"
             style="fill:#5e4028;fill-opacity:1;fill-rule:nonzero;stroke:none"
             id="path240"
             inkscape:connector-curvature="0" /></g><g
           id="g242"
           transform="translate(369.7018,383.4963)"><path
             d="M 0,0 C -0.396,0.89 -1.015,1.667 -1.754,2.323 -2.496,2.974 -3.393,3.505 -4.404,3.756 -4.896,3.887 -5.458,3.95 -6.007,3.864 -6.555,3.773 -7.086,3.556 -7.511,3.223 -8.37,2.563 -8.848,1.593 -8.955,0.626 c 0.575,0.777 1.225,1.435 1.953,1.806 0.731,0.377 1.5,0.4 2.324,0.192 0.824,-0.187 1.623,-0.561 2.4,-1.016 C -1.504,1.145 -0.758,0.599 0,0"
             style="fill:#5e4028;fill-opacity:1;fill-rule:nonzero;stroke:none"
             id="path244"
             inkscape:connector-curvature="0" /></g><g
           id="g246"
           transform="translate(384.8981,378.112)"><path
             d="M 0,0 C 0,0 -3.381,-3.201 -7.493,-0.209"
             style="fill:none;stroke:#000000;stroke-width:0.5;stroke-linecap:round;stroke-linejoin:round;stroke-miterlimit:10;stroke-dasharray:none;stroke-opacity:1"
             id="path248"
             inkscape:connector-curvature="0" /></g><g
           id="g250"
           transform="translate(369.8888,377.947)"><path
             d="M 0,0 C 0,0 -2.554,-2.833 -6.189,0.373"
             style="fill:none;stroke:#000000;stroke-width:0.5;stroke-linecap:round;stroke-linejoin:round;stroke-miterlimit:10;stroke-dasharray:none;stroke-opacity:1"
             id="path252"
             inkscape:connector-curvature="0" /></g></g></g><g
       id="g254"><g
         id="g256"
         clip-path="url(#clipPath260)"><g
           id="g262"><g
             id="g264"><path
               d="m 371.083,379.092 c 0.529,-1.528 0.118,-3.339 -1.019,-4.489 v 0 c -0.663,-0.671 -1.561,-1.15 -1.982,-1.995 v 0 c -0.383,-0.768 -0.279,-1.717 0.128,-2.471 v 0 c 0.407,-0.755 1.083,-1.335 1.818,-1.777 v 0 c 0,0 2.31,-0.415 3.821,1.921 v 0 c 1.511,2.334 0.92,5.978 -0.004,8.278 v 0 c -0.365,0.906 -0.871,1.181 -1.351,1.181 v 0 c -0.737,0 -1.411,-0.648 -1.411,-0.648"
               style="fill:url(#linearGradient272);stroke:none"
               id="path274"
               inkscape:connector-curvature="0" /></g></g></g></g><g
       id="g276"><g
         id="g278"
         clip-path="url(#clipPath282)"><g
           id="g284"
           transform="translate(371.0836,379.092)"><path
             d="m 0,0 c 0.528,-1.528 0.117,-3.339 -1.02,-4.489 -0.663,-0.671 -1.561,-1.15 -1.981,-1.995 -0.383,-0.767 -0.279,-1.717 0.127,-2.472 0.407,-0.754 1.083,-1.334 1.818,-1.775"
             style="fill:none;stroke:#000000;stroke-width:0.5;stroke-linecap:round;stroke-linejoin:round;stroke-miterlimit:10;stroke-dasharray:none;stroke-opacity:1"
             id="path286"
             inkscape:connector-curvature="0" /></g><g
           id="g288"
           transform="translate(379.1959,381.5129)"><path
             d="M 0,0 C 1.403,0.404 2.894,0.501 4.337,0.283"
             style="fill:none;stroke:#000000;stroke-width:0.5;stroke-linecap:round;stroke-linejoin:round;stroke-miterlimit:10;stroke-dasharray:none;stroke-opacity:1"
             id="path290"
             inkscape:connector-curvature="0" /></g><g
           id="g292"
           transform="translate(367.9972,381.6354)"><path
             d="M 0,0 C -1.096,0.469 -2.275,0.635 -3.433,0.484"
             style="fill:none;stroke:#000000;stroke-width:0.5;stroke-linecap:round;stroke-linejoin:round;stroke-miterlimit:10;stroke-dasharray:none;stroke-opacity:1"
             id="path294"
             inkscape:connector-curvature="0" /></g><g
           id="g296"
           transform="translate(405.2574,406.236)"><path
             d="m 0,0 c -6.954,8.112 -18.812,10.374 -28.349,6.247 -5.331,-2.308 -9.881,-6.438 -13.194,-11.474 -1.611,-2.449 -3.173,-5.259 -4.02,-8.135 -0.244,-0.827 -0.833,-3.863 -0.833,-3.863 0,0 2.01,2.451 6.379,6.95 3.959,4.077 6.63,4.886 6.63,4.886 -0.181,-6.095 4.125,-11.972 9.659,-13.185 -0.616,1.548 -0.837,3.277 -0.636,4.95 2.226,-3.787 6.006,-6.263 9.974,-7.606 3.968,-1.344 8.165,-1.67 12.318,-1.987 1.282,-3.147 3.029,-6.072 5.155,-8.631 1.759,0.831 2.506,3.061 2.906,5.085 C 7.84,-17.42 5.994,-6.994 0,0"
             style="fill:#5e4028;fill-opacity:1;fill-rule:nonzero;stroke:none"
             id="path298"
             inkscape:connector-curvature="0" /></g><g
           id="g300"
           transform="translate(404.1823,378.3249)"><path
             d="m 0,0 c -2.688,-4.297 -3.333,-8.558 -0.284,-10.465 3.049,-1.907 8.636,-0.739 11.324,3.559 2.689,4.298 2.397,9.328 -0.652,11.235 C 7.339,6.236 2.688,4.298 0,0"
             style="fill:#f2b27e;fill-opacity:1;fill-rule:nonzero;stroke:none"
             id="path302"
             inkscape:connector-curvature="0" /></g><g
           id="g304"
           transform="translate(416.5543,380.2136)"><path
             d="M 0,0 C 0,0 -5.999,0.313 -12.264,-8.979"
             style="fill:none;stroke:#000000;stroke-width:0.5;stroke-linecap:round;stroke-linejoin:round;stroke-miterlimit:10;stroke-dasharray:none;stroke-opacity:1"
             id="path306"
             inkscape:connector-curvature="0" /></g><g
           id="g308"><g
             id="g310" /><g
             id="g322"><g
               clip-path="url(#clipPath314)"
               id="g320"><g
                 transform="translate(386.9244,406.5734)"
                 id="g318"><path
                   d="m 0,0 c 5.608,-1.737 10.797,-4.579 16.026,-7.248 5.231,-2.668 10.62,-5.205 16.396,-6.257 2.142,-0.391 4.354,-0.556 6.54,-0.449 -0.072,0.433 -0.134,0.867 -0.219,1.298 -0.736,3.747 -2.151,7.592 -4.135,11.146 C 27.874,-2.546 20.994,-2.326 14.481,-0.385 11.522,0.498 8.677,1.716 5.808,2.856 -1.383,5.714 -8.879,8.108 -16.542,8.909 -20.384,6.681 -23.759,3.641 -26.099,-0.071 -17.674,2.578 -8.438,2.614 0,0"
                   style="fill:#5e4028;fill-opacity:1;fill-rule:nonzero;stroke:none"
                   id="path316"
                   inkscape:connector-curvature="0" /></g></g></g></g><g
           id="g324"
           transform="translate(360.2159,308.3444)"><path
             d="m 0,0 c 4.653,0.727 9.707,0.142 14.247,-1.011 1.588,-0.404 3.313,-1.039 4.048,-2.503 0.095,-0.189 0.173,-0.39 0.308,-0.553 0.156,-0.188 0.377,-0.309 0.588,-0.432 1.306,-0.757 1.632,-1.67 2.233,-2.905 0.448,-0.919 0.776,-2.245 -0.502,-2.776 0.589,-0.8 -0.139,-2.014 -1.093,-2.294 -0.954,-0.279 -1.965,0.057 -2.914,0.352 -1.33,0.413 -2.682,0.749 -4.05,1.008 -0.75,0.142 -1.512,0.26 -2.274,0.211 -1.552,-0.102 -2.965,-0.889 -4.443,-1.375 -4.14,-1.361 -8.66,-1.453 -12.922,-0.63 -2.003,0.387 -5.058,0.348 -6.409,2.11 -0.713,0.929 -1.91,3.304 -1.584,4.528 -0.099,1.858 0.928,2.204 2.553,2.59 C -8.093,-2.699 -4.182,-0.654 0,0"
             style="fill:#f2b27e;fill-opacity:1;fill-rule:nonzero;stroke:none"
             id="path326"
             inkscape:connector-curvature="0" /></g><g
           id="g328"
           transform="translate(378.4625,303.8205)"><path
             d="M 0,0 C -2.937,1.017 -5.958,1.788 -9.022,2.305"
             style="fill:none;stroke:#333333;stroke-width:0.5;stroke-linecap:round;stroke-linejoin:round;stroke-miterlimit:10;stroke-dasharray:none;stroke-opacity:1"
             id="path330"
             inkscape:connector-curvature="0" /></g><g
           id="g332"
           transform="translate(380.6198,300.7175)"><path
             d="M 0,0 C -3.242,1.249 -6.589,2.226 -9.994,2.917"
             style="fill:none;stroke:#333333;stroke-width:0.5;stroke-linecap:round;stroke-linejoin:round;stroke-miterlimit:10;stroke-dasharray:none;stroke-opacity:1"
             id="path334"
             inkscape:connector-curvature="0" /></g><g
           id="g336"
           transform="translate(380.5612,298.1066)"><path
             d="M 0,0 C -3.107,1.321 -6.398,2.211 -9.749,2.637"
             style="fill:none;stroke:#333333;stroke-width:0.5;stroke-linecap:round;stroke-linejoin:round;stroke-miterlimit:10;stroke-dasharray:none;stroke-opacity:1"
             id="path338"
             inkscape:connector-curvature="0" /></g><g
           id="g340"
           transform="translate(390.8707,259.0046)"><path
             d="m 0,0 c -3.025,-2.035 -5.159,-4.96 -7.694,-7.542 -1.381,-1.407 -2.775,-2.823 -4.41,-3.925 -1.461,-0.985 -2.904,-1.858 -4.567,-2.494 -1.968,-0.752 -3.935,-1.503 -5.904,-2.255 -0.618,-0.236 -1.249,-0.475 -1.91,-0.507 -0.661,-0.031 -1.369,0.181 -1.777,0.702 -0.712,-0.174 -1.438,-0.348 -2.169,-0.298 -0.732,0.049 -1.483,0.359 -1.888,0.969 -0.086,0.13 -0.16,0.276 -0.29,0.363 -0.11,0.074 -0.247,0.094 -0.372,0.141 -0.451,0.172 -0.693,0.691 -0.683,1.173 0.012,0.482 0.225,0.935 0.451,1.36 -0.347,0.202 -0.433,0.679 -0.338,1.069 0.129,0.53 0.514,0.97 0.965,1.276 0.451,0.307 0.969,0.497 1.482,0.686 0.996,0.366 1.991,0.735 2.986,1.105 0.777,0.29 1.556,0.582 2.277,0.992 1.392,0.793 2.491,1.988 3.451,3.251 0.451,0.591 0.85,1.223 1.345,1.768 0.297,0.33 0.716,0.774 0.522,1.276 -0.224,0.578 -1.014,0.642 -1.623,0.536 -2.472,-0.429 -4.634,-2.02 -7.116,-2.383 -0.384,-0.056 -0.828,-0.063 -1.1,0.214 -0.466,0.476 -0.035,1.259 0.396,1.768 1.534,1.806 3.112,3.649 5.167,4.828 3.527,2.021 7.858,2.943 11.807,3.72 2.179,0.43 4.315,0.702 6.392,1.273 0,0 11.613,17.454 18.195,22.307 0,0 7.492,8.629 15.493,0.781 0,0 1.235,-5.226 -3.567,-11.674 C 20.719,14.032 0,0 0,0"
             style="fill:#f2b27e;fill-opacity:1;fill-rule:nonzero;stroke:none"
             id="path342"
             inkscape:connector-curvature="0" /></g><g
           id="g344"
           transform="translate(359.9147,246.7477)"><path
             d="M 0,0 C 3.217,0.472 6.369,1.384 9.34,2.703"
             style="fill:none;stroke:#333333;stroke-width:0.5;stroke-linecap:round;stroke-linejoin:round;stroke-miterlimit:10;stroke-dasharray:none;stroke-opacity:1"
             id="path346"
             inkscape:connector-curvature="0" /></g><g
           id="g348"
           transform="translate(360.6178,244.0895)"><path
             d="M 0,0 C 3.521,0.755 6.948,1.947 10.177,3.542"
             style="fill:none;stroke:#333333;stroke-width:0.5;stroke-linecap:round;stroke-linejoin:round;stroke-miterlimit:10;stroke-dasharray:none;stroke-opacity:1"
             id="path350"
             inkscape:connector-curvature="0" /></g><g
           id="g352"
           transform="translate(364.9342,243.2917)"><path
             d="M 0,0 C 2.689,0.748 5.314,1.723 7.84,2.911"
             style="fill:none;stroke:#333333;stroke-width:0.5;stroke-linecap:round;stroke-linejoin:round;stroke-miterlimit:10;stroke-dasharray:none;stroke-opacity:1"
             id="path354"
             inkscape:connector-curvature="0" /></g><g
           id="g356"
           transform="translate(404.4996,290.5939)"><path
             d="M 0,0 C 1.776,1.567 3.971,2.658 6.293,3.126"
             style="fill:none;stroke:#333333;stroke-width:0.5;stroke-linecap:round;stroke-linejoin:round;stroke-miterlimit:10;stroke-dasharray:none;stroke-opacity:1"
             id="path358"
             inkscape:connector-curvature="0" /></g><g
           id="g360"
           transform="translate(394.902,355.7385)"><path
             d="m 0,0 c 0.556,-5.534 -2.209,-10.774 -3.963,-16.052 -2.114,-6.361 -2.799,-13.193 -1.99,-19.848 3.933,-0.814 7.982,-1.072 11.987,-0.764 -0.315,3.872 -0.416,7.886 0.973,11.514 1.537,4.017 4.741,7.16 6.751,10.962 1.65,3.124 2.465,6.684 2.337,10.214"
             style="fill:#5e4028;fill-opacity:1;fill-rule:nonzero;stroke:none"
             id="path362"
             inkscape:connector-curvature="0" /></g><g
           id="g364"
           transform="translate(407.7291,339.9504)"><path
             d="m 0,0 c 0.329,0.523 0.642,1.055 0.931,1.601 1.65,3.123 2.465,6.683 2.337,10.213"
             style="fill:none;stroke:#000000;stroke-width:0.5;stroke-linecap:round;stroke-linejoin:round;stroke-miterlimit:10;stroke-dasharray:none;stroke-opacity:1"
             id="path366"
             inkscape:connector-curvature="0" /></g><g
           id="g368"
           transform="translate(451.0533,328.0217)"><path
             d="m 0,0 c 0,-3.06 -2.48,-5.54 -5.541,-5.54 -3.06,0 -5.54,2.48 -5.54,5.54 0,3.06 2.48,5.541 5.54,5.541 C -2.48,5.541 0,3.06 0,0 Z"
             style="fill:none;stroke:#333333;stroke-width:0.5;stroke-linecap:round;stroke-linejoin:round;stroke-miterlimit:10;stroke-dasharray:none;stroke-opacity:1"
             id="path370"
             inkscape:connector-curvature="0" /></g><g
           id="g372"
           transform="translate(345.3942,387.3996)"><path
             d="m 0,0 c 0,-3.06 -2.48,-5.541 -5.541,-5.541 -3.059,0 -5.54,2.481 -5.54,5.541 0,3.06 2.481,5.54 5.54,5.54 C -2.48,5.54 0,3.06 0,0 Z"
             style="fill:none;stroke:#333333;stroke-width:0.5;stroke-linecap:round;stroke-linejoin:round;stroke-miterlimit:10;stroke-dasharray:none;stroke-opacity:1"
             id="path374"
             inkscape:connector-curvature="0" /></g><g
           id="g376"
           transform="translate(331.4508,371.9367)"><path
             d="m 0,0 c 0,-0.988 -0.801,-1.789 -1.789,-1.789 -0.988,0 -1.79,0.801 -1.79,1.789 0,0.988 0.802,1.79 1.79,1.79 C -0.801,1.79 0,0.988 0,0"
             style="fill:#333333;fill-opacity:1;fill-rule:nonzero;stroke:none"
             id="path378"
             inkscape:connector-curvature="0" /></g><g
           id="g380"
           transform="translate(443.5514,351.7648)"><path
             d="m 0,0 c 0,-0.988 -0.802,-1.79 -1.79,-1.79 -0.988,0 -1.789,0.802 -1.789,1.79 0,0.988 0.801,1.79 1.789,1.79 C -0.802,1.79 0,0.988 0,0"
             style="fill:#333333;fill-opacity:1;fill-rule:nonzero;stroke:none"
             id="path382"
             inkscape:connector-curvature="0" /></g><g
           id="g384"
           transform="translate(675.8073,298.5993)" /></g></g></g></svg>